# xmcd CD database file
#
# Track frame offsets:
#	150
#	15897
#	30308
#	44483
#	55329
#	69135
#	80526
#	90288
#	109275
#	125901
#	139467
#	155126
#	168902
#
# Disc length: 2436 seconds
#
# Revision: 3
# Processed by: cddbd v1.5.2PL0 Copyright (c) Steve Scherf et al.
# Submitted via: CDex 1.70beta2
#
DISCID=a609820d
DTITLE=Various Artist - KulturSPIEGEL World Tour - Tango Passion  CD1  Noches De La Pasión
DYEAR=2008
DGENRE=Jazz
TTITLE0=Leopoldo Federico - Libertango 
TTITLE1=Astor Piazzolla and His Quintet - Quejas De Bandoneón
TTITLE2=Carlos Gardel and Acompañamiento De Guitarras - Cuesta Abajo
TTITLE3=Raúl Garello Y Su Orchesta - El Amanecer
TTITLE4=Mariano Mores and Enrique Lucero - Cafetin De Buenos Aires
TTITLE5=Aníbal Troilo Y Su Orchesta Típica - Romance De Barrio
TTITLE6=Alberto Gómez - Orgullo Tanguero
TTITLE7=Astor Piazolla Y Su Quinteto - Adiós Nonino
TTITLE8=Virgina Luque - Alma De Bandoneon
TTITLE9=Aníbal Troilo Y Su Orchesta Típica and Roberto Goyeneche - Barrio De Tango
TTITLE10=Tita Morello and Francisco Canaro Y Su Orchesta Típica - Se Dice De Mi
TTITLE11=Carlos Gardel - Mano A Mano
TTITLE12=Duo Diagonal - Retintín
EXTD=YEAR: 2008
EXTT0=
EXTT1=
EXTT2=
EXTT3=
EXTT4=
EXTT5=
EXTT6=
EXTT7=
EXTT8=
EXTT9=
EXTT10=
EXTT11=
EXTT12=
PLAYORDER=
